<?xml version="1.0" encoding="UTF-8" standalone="no"?>
<!-- Created with Inkscape (http://www.inkscape.org/) -->

<svg
   width="201.71404mm"
   height="175.33524mm"
   viewBox="0 0 201.71404 175.33524"
   version="1.1"
   id="svg397"
   inkscape:version="1.1 (c4e8f9ed74, 2021-05-24)"
   sodipodi:docname="liongov-canvasfit.svg"
   xmlns:inkscape="http://www.inkscape.org/namespaces/inkscape"
   xmlns:sodipodi="http://sodipodi.sourceforge.net/DTD/sodipodi-0.dtd"
   xmlns="http://www.w3.org/2000/svg"
   xmlns:svg="http://www.w3.org/2000/svg">
  <sodipodi:namedview
     id="namedview399"
     pagecolor="#ffffff"
     bordercolor="#999999"
     borderopacity="1"
     inkscape:pageshadow="0"
     inkscape:pageopacity="0"
     inkscape:pagecheckerboard="0"
     inkscape:document-units="px"
     showgrid="false"
     inkscape:zoom="0.94237256"
     inkscape:cx="-499.27175"
     inkscape:cy="404.82927"
     inkscape:window-width="3840"
     inkscape:window-height="2136"
     inkscape:window-x="3840"
     inkscape:window-y="0"
     inkscape:window-maximized="1"
     inkscape:current-layer="layer1"
     fit-margin-top="0"
     fit-margin-left="0"
     fit-margin-right="0"
     fit-margin-bottom="0" />
  <defs
     id="defs394" />
  <g
     inkscape:label="Layer 1"
     inkscape:groupmode="layer"
     id="layer1"
     transform="translate(-73.033754,-9.2433926)">
    <path
       style="fill:#000000;stroke-width:0.352778"
       d="m 241.99506,184.2804 c -0.10137,-0.16402 -0.29126,-0.99746 -0.42196,-1.85208 -0.46365,-3.03155 -2.06016,-4.8455 -5.40683,-6.14319 -1.36795,-0.53044 -2.59094,-1.2728 -2.98243,-1.81036 -0.83516,-1.14677 -0.90141,-3.1209 -0.1583,-4.71707 0.31506,-0.67675 1.07917,-2.50046 1.69801,-4.05268 0.61885,-1.55222 1.25866,-3.13972 1.4218,-3.52778 1.25511,-2.98544 2.46461,-6.67521 2.46461,-7.51864 0,-1.99634 -5.61894,-9.66447 -7.5082,-10.2464 -1.53951,-0.4742 -7.42876,-1.10857 -10.29156,-1.10857 h -2.33368 l -3.11109,-3.0868 c -1.73906,-1.72549 -3.67827,-4.06752 -4.39717,-5.31057 -0.70735,-1.22307 -1.28608,-2.28668 -1.28608,-2.36359 0,-0.0769 -0.55522,-1.06058 -1.23382,-2.18595 -1.10592,-1.83405 -1.23391,-2.30954 -1.23472,-4.58719 -3.5e-4,-1.39757 0.16964,-2.91535 0.37809,-3.37284 0.20845,-0.4575 1.20092,-1.32342 2.20549,-1.92428 6.75889,-4.04267 11.68301,-10.99568 13.26154,-18.72577 0.83069,-4.067885 0.2964,-7.342281 -1.39452,-8.546332 -1.27594,-0.90854 -1.30777,-1.38611 -0.164,-2.46062 0.48506,-0.4557 0.88194,-1.039 0.88194,-1.29622 0,-0.29006 0.42488,-0.46767 1.11881,-0.46767 0.86918,0 1.46598,-0.36234 2.6749,-1.62404 1.31386,-1.371216 1.51723,-1.769366 1.30636,-2.557636 -0.29353,-1.09726 -0.29045,-1.16626 0.14305,-3.211443 0.35159,-1.658701 0.16636,-3.781316 -0.35828,-4.105557 -0.17145,-0.105964 -1.12329,0.453517 -2.1152,1.243287 -2.14714,1.709576 -2.91948,1.793357 -3.64253,0.395133 -1.17848,-2.278941 -0.0463,-6.569355 2.37623,-9.004777 l 1.39511,-1.402532 0.66744,0.824255 c 0.3671,0.45334 0.66987,1.243231 0.67284,1.755309 0.0138,2.370173 1.44134,2.366716 3.0313,-0.0073 0.68012,-1.01553 1.18622,-2.314155 1.33296,-3.420279 0.1301,-0.980737 0.47015,-2.445269 0.75567,-3.254513 0.35362,-1.002277 0.51912,-2.915328 0.51912,-6.000698 0,-3.956258 -0.0781,-4.56994 -0.61736,-4.850179 -0.33955,-0.176456 -2.9942,-0.435205 -5.89922,-0.574993 -4.63913,-0.223231 -5.33958,-0.336571 -5.75623,-0.931425 -0.81118,-1.15812 -2.77032,-1.725352 -5.95912,-1.725352 -2.38308,0 -3.60809,-0.213384 -6.14596,-1.070564 -6.7647,-2.284829 -12.86182,-1.589172 -21.13045,2.410908 -5.29777,2.562878 -13.54223,8.871205 -12.9167,9.883339 0.11925,0.192955 0.8518,0.265663 1.62787,0.161568 0.77608,-0.104094 1.41105,-0.06966 1.41105,0.07653 0,0.146184 -1.39837,1.582152 -3.10749,3.191037 -4.88259,4.596268 -11.1925,13.969053 -11.92571,17.714556 -0.26799,1.36895 0.17056,1.47849 1.66341,0.41549 1.76814,-1.259025 2.04979,-0.85646 1.37531,1.96576 -0.3246,1.35819 -0.86217,3.660066 -1.19458,5.115266 -0.33243,1.45521 -0.68658,2.92365 -0.78701,3.263201 -0.27732,0.93763 0.8842,0.77757 2.7063,-0.372941 0.86261,-0.54466 1.8065,-1.10651 2.09754,-1.24855 0.29104,-0.14205 0.92604,-0.48549 1.41111,-0.7632 0.5464,-0.31283 0.92884,-0.36822 1.0052,-0.14558 0.41193,1.20107 -3.48862,9.592292 -6.04954,13.014332 -3.02897,4.04746 -7.32848,7.61423 -12.77094,10.59446 -5.15698,2.82391 -12.09956,8.38359 -18.92043,15.15166 -3.60948,3.58154 -3.83379,3.89497 -5.9456,8.30806 -2.98334,6.23434 -5.20816,9.25392 -8.76591,11.89728 -3.14694,2.33814 -5.45903,3.21563 -8.87778,3.3693 -2.83501,0.12743 -3.08726,0.0777 -4.62347,-0.9113 -2.10002,-1.352 -3.02551,-3.25665 -3.34799,-6.89006 l -0.24542,-2.76533 2.86203,-2.70272 c 1.57412,-1.4865 3.03015,-3.16042 3.23563,-3.71984 0.22315,-0.60755 0.28921,-2.24118 0.16404,-4.05694 -0.26292,-3.8143 0.19383,-4.66077 3.74232,-6.93529 2.08288,-1.33509 2.43339,-1.69212 2.07967,-2.11833 -0.31115,-0.37491 -1.23304,-0.5126 -3.43201,-0.5126 -2.70882,0 -3.25946,0.12162 -5.55971,1.228 -1.77217,0.85238 -3.08837,1.81365 -4.303,3.14265 -2.93737,3.21396 -3.40887,4.79887 -3.79339,12.75133 -0.20822,4.30621 -0.17631,4.65145 0.50225,5.43384 0.83903,0.9674 0.88129,1.37346 0.23198,2.22894 -0.45976,0.60573 -0.42648,1.07314 0.30811,4.3277 0.36454,1.61506 2.49095,4.31359 4.3062,5.46479 2.10577,1.33544 6.23645,2.25671 9.06185,2.02107 2.98076,-0.24858 6.31966,-1.45354 9.04147,-3.26292 2.13885,-1.42185 6.39972,-5.44744 8.12268,-7.67418 1.62581,-2.10116 1.92209,0.60356 0.46716,4.26472 -1.20291,3.02701 -2.8711,5.64319 -5.47944,8.59328 l -2.08617,2.35951 0.0644,3.28494 c 0.0354,1.80672 -0.076,5.58127 -0.24754,8.38789 -0.35737,5.84735 -0.19191,5.596 -4.19243,6.36849 -1.16417,0.2248 -3.96799,0.89177 -6.23071,1.48217 l -4.11404,1.07345 -1.00124,-0.71626 c -3.5458,-2.53658 -13.04807,-14.33839 -17.25015,-21.42469 -1.61932,-2.73079 -5.7997,-10.85301 -5.7997,-11.26847 0,-0.11247 -0.31407,-0.87745 -0.69794,-1.69996 -1.50476,-3.22418 -4.01198,-10.71396 -4.98815,-14.90101 -0.18094,-0.77611 -0.82484,-4.10986 -1.43088,-7.40833 -1.07252,-5.83736 -1.10233,-6.27935 -1.11837,-16.58056 -0.0156,-9.98642 0.0383,-10.901764 0.95443,-16.227831 0.534,-3.104441 1.11282,-6.120691 1.28626,-6.702781 0.17345,-0.58208 0.57619,-2.090206 0.89499,-3.351386 2.62528,-10.385656 8.46075,-22.854097 15.10726,-32.279166 4.5478,-6.449005 12.78702,-15.231503 18.92018,-20.167761 3.21716,-2.589318 9.46217,-6.873748 13.05278,-8.95495 4.8896,-2.834122 12.93532,-6.557801 17.10072,-7.914469 7.01662,-2.285301 10.95454,-3.285193 16.58956,-4.212315 6.56907,-1.0808014 9.03361,-1.2648984 16.93333,-1.2648984 7.89974,0 10.36427,0.184097 16.93335,1.2648984 16.64709,2.738923 31.48013,9.363358 46.0375,20.56035 4.94725,3.805237 13.86781,12.997565 17.92937,18.475601 1.97452,2.66313 3.59003,4.90819 3.59003,4.989022 0,0.08083 0.88373,1.553158 1.96384,3.271835 2.29345,3.649345 5.62775,10.184829 6.9937,13.708201 0.52655,1.358194 1.0974,2.786945 1.26855,3.175 1.4187,3.216603 3.8201,12.044262 4.75035,17.462498 0.31647,1.843261 0.76184,4.383261 0.98971,5.644447 0.55483,3.070765 0.55483,21.623725 0,24.694495 -0.22787,1.26118 -0.67157,3.80118 -0.986,5.64444 -2.78097,16.3027 -9.94168,31.97977 -20.76746,45.46658 -3.06115,3.81359 -9.72371,10.97787 -10.20908,10.97787 -0.10436,0 -0.2727,-0.1342 -0.37407,-0.29823 z m -16.33331,-2.2594 c -0.41927,-0.55257 -1.1629,-3.86966 -1.1629,-5.18731 0,-1.16921 0.33476,-2.02102 3.61107,-9.18839 2.55247,-5.58388 3.44448,-8.79819 3.44448,-12.41201 0,-1.96547 -0.45742,-2.1645 -2.13095,-0.9272 -0.79088,0.58472 -1.04405,1.05485 -1.04405,1.93881 0,0.94354 -0.43457,1.64047 -2.2702,3.64071 -1.2486,1.36059 -2.38169,2.82968 -2.51797,3.26466 -0.36254,1.15719 -1.56183,2.62689 -1.56183,1.91398 0,-0.76125 0.85485,-3.86632 1.73644,-6.30732 0.79173,-2.19216 0.67975,-3.10608 -0.38059,-3.10608 -1.17992,0 -2.51078,0.92359 -4.91868,3.41347 -3.0538,3.15777 -3.55903,3.95963 -4.73124,7.50911 -1.12497,3.40642 -2.6113,6.43276 -3.2594,6.63649 -0.24408,0.0767 -0.43814,-0.15015 -0.43463,-0.50814 0.005,-0.54759 1.10111,-5.3568 2.0764,-9.11343 0.32652,-1.25765 1.24788,-3.0962 1.88375,-3.75893 0.25033,-0.26092 1.68116,-1.92822 3.17961,-3.70511 1.5778,-1.87099 3.46835,-3.68844 4.49195,-4.31827 0.97213,-0.59815 1.7675,-1.31634 1.7675,-1.59596 0,-1.60135 5.33175,-2.8555 7.53446,-1.77227 0.60973,0.29985 1.88291,1.57272 2.82929,2.8286 1.59197,2.1126 1.70499,2.39499 1.51075,3.7749 -0.65054,4.62159 -2.00089,8.74977 -3.77667,11.54566 -2.9823,4.69552 -4.47907,8.76437 -4.81193,13.08085 -0.2132,2.76466 -0.41462,3.20987 -1.06466,2.35318 z m -73.18221,-15.87501 c -1.068,-1.21267 -2.21166,-2.61999 -2.54147,-3.12738 -0.68406,-1.05238 -0.65041,-1.18343 1.40561,-5.47361 1.73138,-3.61276 2.02807,-6.75276 0.8381,-8.87003 -0.4288,-0.76294 -0.72219,-1.6883 -0.65197,-2.05634 0.0702,-0.36804 0.96805,-1.23184 1.99517,-1.91955 2.71545,-1.81813 5.81522,-2.59831 14.00024,-3.52372 4.75185,-0.53725 9.89613,-1.60457 12.78616,-2.65282 1.30913,-0.47485 2.64715,-0.86335 2.97337,-0.86335 0.36573,0 2.02171,2.05054 4.31923,5.34833 4.12914,5.92684 4.1029,5.78611 1.31518,7.05607 -0.8787,0.40029 -2.5,1.58852 -3.60289,2.64049 -2.15506,2.05558 -3.41508,2.594 -6.07058,2.594 -2.04198,0 -4.47011,1.14426 -7.48714,3.52835 -5.21962,4.1246 -14.67661,9.52443 -16.68061,9.52443 -0.36311,0 -1.52454,-0.98552 -2.5984,-2.20487 z m 52.86683,-6.83465 c -0.12104,-0.12104 0.1017,-0.8508 0.49499,-1.6217 0.39328,-0.7709 0.64129,-1.59385 0.55114,-1.82879 -0.24076,-0.62741 -4.25895,-1.26833 -7.95169,-1.26833 -6.46757,0 -2.49495,-1.64639 6.83165,-2.83127 1.74625,-0.22185 4.52437,-0.88482 6.17361,-1.47326 3.65668,-1.30469 4.45205,-1.4931 4.67973,-1.10855 0.41768,0.70548 -0.57189,1.95184 -2.98132,3.75494 -1.4192,1.06205 -3.60765,2.98086 -4.86322,4.26402 -2.29667,2.34712 -2.53159,2.51624 -2.93489,2.11294 z m -5.67047,-17.61848 c -2.21818,-5.38207 -2.57777,-6.50312 -2.08591,-6.50312 0.35956,0 4.08443,4.0509 7.08601,7.70624 2.20677,2.68742 2.06712,3.14727 -1.05366,3.46936 l -1.93825,0.20005 z M 98.79235,137.07122 c -0.39543,-0.39543 -0.25123,-4.09802 0.21129,-5.42506 1.09286,-3.13562 4.60129,-6.3342 6.9478,-6.3342 0.93068,0 0.92122,0.0461 -0.39136,1.9083 -1.15461,1.63806 -1.65337,3.6306 -1.69022,6.7524 -0.0194,1.64143 -0.45111,2.62819 -1.14992,2.62819 -0.15522,0 -0.28222,-0.80698 -0.28222,-1.79328 0,-2.27693 -0.46803,-2.15385 -1.84489,0.48515 -1.026129,1.96677 -1.32097,2.25802 -1.80048,1.7785 z"
       id="path118"
       sodipodi:nodetypes="sssssssssscsssscsssssssssssssscscssssssssssssssssssssssssssssssscsssssssssssssssssscsssscsssssscssssssssssssssssssssssssssssssssssssscssssssssssssssssssssssssssssssssssssssssscssssssssss" />
  </g>
</svg>
